<svg width="10" height="16" viewBox="0 0 10 16" fill="none" xmlns="http://www.w3.org/2000/svg">
<path d="M8.08334 15.5833L1.06251 8.58332C0.979177 8.49999 0.920288 8.40971 0.885844 8.31249C0.850844 8.21527 0.833344 8.1111 0.833344 7.99999C0.833344 7.88888 0.850844 7.78471 0.885844 7.68749C0.920288 7.59027 0.979177 7.49999 1.06251 7.41666L8.08334 0.395823C8.27779 0.201379 8.52084 0.104156 8.81251 0.104156C9.10418 0.104156 9.35418 0.208323 9.56251 0.416656C9.77084 0.62499 9.87501 0.868045 9.87501 1.14582C9.87501 1.4236 9.77084 1.66666 9.56251 1.87499L3.43751 7.99999L9.56251 14.125C9.75695 14.3194 9.85418 14.5589 9.85418 14.8433C9.85418 15.1283 9.75001 15.375 9.54168 15.5833C9.33334 15.7917 9.09029 15.8958 8.81251 15.8958C8.53473 15.8958 8.29168 15.7917 8.08334 15.5833Z" fill="#1E1E1E"/>
</svg>
