<svg width="20" height="19" viewBox="0 0 20 19" fill="none" xmlns="http://www.w3.org/2000/svg">
<path d="M18 2.248H14.83L13 0.248001H7L5.17 2.248H2C1.46957 2.248 0.960859 2.45871 0.585786 2.83379C0.210714 3.20886 0 3.71757 0 4.248V16.248C0 16.7784 0.210714 17.2871 0.585786 17.6622C0.960859 18.0373 1.46957 18.248 2 18.248H18C18.5304 18.248 19.0391 18.0373 19.4142 17.6622C19.7893 17.2871 20 16.7784 20 16.248V4.248C20 3.71757 19.7893 3.20886 19.4142 2.83379C19.0391 2.45871 18.5304 2.248 18 2.248ZM18 16.248H2V4.248H6.05L7.88 2.248H12.12L14 4.248H18V16.248ZM10 15.248C8.92 15.248 7.86 14.898 7 14.248L8.44 12.808C8.91 13.098 9.45 13.248 10 13.248C10.7956 13.248 11.5587 12.9319 12.1213 12.3693C12.6839 11.8067 13 11.0437 13 10.248C13 9.45235 12.6839 8.68929 12.1213 8.12668C11.5587 7.56407 10.7956 7.248 10 7.248C8.74 7.248 7.6 8.048 7.18 9.248H9L6 12.248L3 9.248H5.1C5.23084 8.60427 5.48731 7.99266 5.85475 7.44815C6.22219 6.90364 6.69338 6.43692 7.24137 6.07469C7.78936 5.71246 8.40339 5.46183 9.04834 5.33713C9.69328 5.21244 10.3565 5.21613 11 5.348C12.2152 5.59475 13.2953 6.2842 14.0307 7.28253C14.7661 8.28085 15.1043 9.51682 14.9797 10.7505C14.8551 11.9842 14.2765 13.1275 13.3563 13.9586C12.4361 14.7897 11.24 15.2492 10 15.248Z" fill="#F1F1F1"/>
</svg>
