<svg width="21" height="20" viewBox="0 0 21 20" fill="none" xmlns="http://www.w3.org/2000/svg">
<path d="M10.5 20C9.11667 20 7.81667 19.7373 6.6 19.212C5.38333 18.6873 4.325 17.975 3.425 17.075C2.525 16.175 1.81267 15.1167 1.288 13.9C0.762667 12.6833 0.5 11.3833 0.5 10C0.5 8.61667 0.762667 7.31667 1.288 6.1C1.81267 4.88333 2.525 3.825 3.425 2.925C4.325 2.025 5.38333 1.31233 6.6 0.787C7.81667 0.262333 9.11667 0 10.5 0C11.5833 0 12.6083 0.158333 13.575 0.475C14.5417 0.791667 15.4333 1.23333 16.25 1.8L14.8 3.275C14.1667 2.875 13.4917 2.56233 12.775 2.337C12.0583 2.11233 11.3 2 10.5 2C8.28333 2 6.396 2.779 4.838 4.337C3.27933 5.89567 2.5 7.78333 2.5 10C2.5 12.2167 3.27933 14.1043 4.838 15.663C6.396 17.221 8.28333 18 10.5 18C12.7167 18 14.6043 17.221 16.163 15.663C17.721 14.1043 18.5 12.2167 18.5 10C18.5 9.7 18.4833 9.4 18.45 9.1C18.4167 8.8 18.3667 8.50833 18.3 8.225L19.925 6.6C20.1083 7.13333 20.25 7.68333 20.35 8.25C20.45 8.81667 20.5 9.4 20.5 10C20.5 11.3833 20.2373 12.6833 19.712 13.9C19.1873 15.1167 18.475 16.175 17.575 17.075C16.675 17.975 15.6167 18.6873 14.4 19.212C13.1833 19.7373 11.8833 20 10.5 20ZM9.1 14.6L4.85 10.35L6.25 8.95L9.1 11.8L19.1 1.775L20.5 3.175L9.1 14.6Z" fill="#1E1E1E"/>
</svg>
