<svg width="124" height="106" viewBox="0 0 124 106" fill="none" xmlns="http://www.w3.org/2000/svg">
<rect x="0.5" width="123" height="105.248" rx="11.44" fill="#E0E0E0"/>
<rect x="9.07999" y="8.58" width="105.84" height="88.088" rx="11.44" fill="#F1F1F1"/>
<path d="M104.79 17.732H19.2101C18.354 17.732 17.66 18.426 17.66 19.2821V23.0459C17.66 23.902 18.354 24.596 19.2101 24.596H104.79C105.646 24.596 106.34 23.902 106.34 23.0459V19.2821C106.34 18.426 105.646 17.732 104.79 17.732Z" fill="#E0E0E0"/>
<path d="M104.79 30.316H19.2101C18.354 30.316 17.66 31.01 17.66 31.8661V35.6299C17.66 36.486 18.354 37.18 19.2101 37.18H104.79C105.646 37.18 106.34 36.486 106.34 35.6299V31.8661C106.34 31.01 105.646 30.316 104.79 30.316Z" fill="#E0E0E0"/>
<path d="M104.79 42.9H19.2101C18.354 42.9 17.66 43.594 17.66 44.4501V48.2139C17.66 49.07 18.354 49.764 19.2101 49.764H104.79C105.646 49.764 106.34 49.07 106.34 48.2139V44.4501C106.34 43.594 105.646 42.9 104.79 42.9Z" fill="#E0E0E0"/>
<path d="M92.7779 55.484H19.2101C18.354 55.484 17.66 56.178 17.66 57.0341V60.7979C17.66 61.654 18.354 62.348 19.2101 62.348H92.7778C93.634 62.348 94.328 61.654 94.328 60.7979V57.0341C94.328 56.178 93.634 55.484 92.7779 55.484Z" fill="#E0E0E0"/>
<path d="M59.0299 68.068H19.2101C18.354 68.068 17.66 68.762 17.66 69.6181V73.3819C17.66 74.238 18.354 74.932 19.2101 74.932H59.0299C59.886 74.932 60.58 74.238 60.58 73.3819V69.6181C60.58 68.762 59.886 68.068 59.0299 68.068Z" fill="#E0E0E0"/>
<path d="M104.79 80.652H19.2101C18.354 80.652 17.66 81.346 17.66 82.2021V85.9659C17.66 86.822 18.354 87.516 19.2101 87.516H104.79C105.646 87.516 106.34 86.822 106.34 85.9659V82.2021C106.34 81.346 105.646 80.652 104.79 80.652Z" fill="#E0E0E0"/>
<g clip-path="url(#clip0_69_215)">
<path fill-rule="evenodd" clip-rule="evenodd" d="M62.0271 59.4308L78.0378 75.4446C78.8874 76.2941 80.0397 76.7714 81.2412 76.7714C82.4427 76.7714 83.595 76.2941 84.4446 75.4446C85.2941 74.595 85.7714 73.4427 85.7714 72.2412C85.7714 71.0397 85.2941 69.8874 84.4446 69.0378L68.4278 53.0271L84.4415 37.0164C84.862 36.5957 85.1955 36.0963 85.423 35.5468C85.6505 34.9972 85.7675 34.4082 85.7673 33.8135C85.7672 33.2187 85.6499 32.6297 85.4222 32.0803C85.1944 31.5308 84.8607 31.0316 84.44 30.6112C84.0194 30.1907 83.52 29.8572 82.9704 29.6297C82.4209 29.4022 81.8319 29.2852 81.2371 29.2854C80.6423 29.2855 80.0534 29.4028 79.504 29.6305C78.9545 29.8583 78.4553 30.192 78.0348 30.6127L62.0271 46.6234L46.0163 30.6127C45.5988 30.1799 45.0992 29.8347 44.5468 29.5971C43.9944 29.3595 43.4002 29.2343 42.7988 29.2288C42.1975 29.2233 41.6011 29.3376 41.0444 29.565C40.4878 29.7925 39.982 30.1285 39.5565 30.5535C39.1311 30.9785 38.7946 31.484 38.5666 32.0405C38.3387 32.5969 38.2238 33.1932 38.2287 33.7946C38.2337 34.3959 38.3583 34.9902 38.5954 35.5428C38.8325 36.0955 39.1773 36.5954 39.6096 37.0133L55.6264 53.0271L39.6126 69.0378C38.763 69.8874 38.2857 71.0397 38.2857 72.2412C38.2857 73.4427 38.763 74.595 39.6126 75.4446C40.4622 76.2941 41.6145 76.7714 42.816 76.7714C44.0175 76.7714 45.1698 76.2941 46.0193 75.4446L62.0271 59.4278V59.4308Z" fill="#1E1E1E"/>
</g>
<defs>
<clipPath id="clip0_69_215">
<rect width="64" height="64" fill="white" transform="translate(30 21)"/>
</clipPath>
</defs>
</svg>
