<svg width="20" height="20" viewBox="0 0 20 20" fill="none" xmlns="http://www.w3.org/2000/svg">
<g opacity="0.5">
<rect width="20" height="20" rx="4" fill="#E0E0E0"/>
<path d="M10.0125 12C9.81248 12 9.64381 11.9292 9.50647 11.7875C9.36881 11.6458 9.30831 11.4792 9.32498 11.2875C9.34998 10.9375 9.43331 10.6333 9.57498 10.375C9.71664 10.1167 9.94164 9.85 10.25 9.575C10.5916 9.275 10.852 9.0145 11.031 8.7935C11.2103 8.57283 11.3 8.32083 11.3 8.0375C11.3 7.69583 11.1855 7.4125 10.9565 7.1875C10.7271 6.9625 10.4083 6.85 9.99998 6.85C9.73331 6.85 9.50631 6.90617 9.31897 7.0185C9.13131 7.13117 8.97914 7.27083 8.86248 7.4375C8.74581 7.60417 8.60214 7.71667 8.43148 7.775C8.26048 7.83333 8.09581 7.82917 7.93748 7.7625C7.74581 7.67917 7.61464 7.54167 7.54398 7.35C7.47298 7.15833 7.48748 6.97917 7.58748 6.8125C7.82914 6.4375 8.15414 6.125 8.56248 5.875C8.97081 5.625 9.44998 5.5 9.99998 5.5C10.875 5.5 11.548 5.74383 12.019 6.2315C12.4896 6.71883 12.725 7.30417 12.725 7.9875C12.725 8.40417 12.6355 8.7605 12.4565 9.0565C12.2771 9.35217 11.9958 9.6875 11.6125 10.0625C11.3291 10.3292 11.1291 10.5458 11.0125 10.7125C10.8958 10.8792 10.8166 11.0708 10.775 11.2875C10.7416 11.4958 10.6541 11.6667 10.5125 11.8C10.3708 11.9333 10.2041 12 10.0125 12ZM9.99998 15C9.72498 15 9.48964 14.9022 9.29398 14.7065C9.09798 14.5105 8.99998 14.275 8.99998 14C8.99998 13.725 9.09798 13.4895 9.29398 13.2935C9.48964 13.0978 9.72498 13 9.99998 13C10.275 13 10.5105 13.0978 10.7065 13.2935C10.9021 13.4895 11 13.725 11 14C11 14.275 10.9021 14.5105 10.7065 14.7065C10.5105 14.9022 10.275 15 9.99998 15Z" fill="#1E1E1E"/>
</g>
</svg>
