<svg width="24" height="24" viewBox="0 0 24 24" fill="none" xmlns="http://www.w3.org/2000/svg">
<path d="M13.0643 3.46056L13.0642 3.46062L8.4189 7.7712C8.41866 7.77142 8.41843 7.77164 8.4182 7.77186C8.12271 8.04654 7.73436 8.19947 7.3309 8.2L7.32959 8.2L4.19999 8.2C3.98782 8.2 3.78434 8.28429 3.63431 8.43432C3.48428 8.58435 3.39999 8.78783 3.39999 9V15C3.39999 15.2122 3.48428 15.4157 3.63431 15.5657C3.78434 15.7157 3.98782 15.8 4.19999 15.8H7.32754H7.32839V16.8C7.47965 16.7999 7.62537 16.8569 7.73639 16.9596L13.0643 3.46056ZM13.0643 3.46056C13.1058 3.42197 13.1402 3.41049 13.1672 3.40655C13.1993 3.40188 13.2392 3.40597 13.28 3.42378C13.3208 3.4416 13.3511 3.46813 13.3695 3.49488C13.385 3.51743 13.4 3.55051 13.4 3.6072V20.3928C13.4 20.4495 13.385 20.4824 13.3696 20.5048C13.3513 20.5313 13.3212 20.5578 13.2803 20.5756C13.2394 20.5935 13.1993 20.5976 13.167 20.5929C13.1398 20.589 13.1054 20.5774 13.0641 20.5392L13.0643 3.46056Z" stroke="#1E1E1E" stroke-width="2"/>
<path d="M16.7983 16.065L16.7471 16.0812L16.7983 16.065ZM16.7303 7.88476L16.7712 7.8965L16.7303 7.88476Z" stroke="#1E1E1E" stroke-width="2"/>
</svg>
