<svg width="24" height="24" viewBox="0 0 24 24" fill="none" xmlns="http://www.w3.org/2000/svg">
<path d="M19.0721 3.04577C18.9535 3.0812 18.8441 3.13626 18.7504 3.2078C18.5613 3.3525 18.4472 3.55548 18.4332 3.77207C18.4192 3.98866 18.5065 4.20114 18.6757 4.36276C20.8726 6.46225 22.087 9.18012 22.087 11.9968C22.087 14.8135 20.8726 17.5313 18.6757 19.6308C18.5906 19.7106 18.5247 19.8041 18.482 19.9058C18.4393 20.0075 18.4206 20.1155 18.427 20.2234C18.4334 20.3313 18.4647 20.437 18.5192 20.5346C18.5737 20.6321 18.6503 20.7194 18.7444 20.7914C18.8386 20.8635 18.9486 20.9189 19.068 20.9545C19.1873 20.99 19.3138 21.005 19.44 20.9985C19.5662 20.9921 19.6896 20.9643 19.8032 20.9168C19.9167 20.8694 20.0182 20.8031 20.1016 20.722C22.6121 18.3226 24 15.2165 24 11.9976C24 8.77866 22.6121 5.67262 20.1016 3.27324C20.0179 3.1931 19.9166 3.12784 19.8034 3.08119C19.6902 3.03453 19.5673 3.00739 19.4419 3.00131C19.3164 2.99523 19.1907 3.01034 19.0721 3.04577Z" fill="#1E1E1E"/>
<path d="M16.2203 16.5856C16.297 16.6708 16.3925 16.7422 16.5015 16.7958C16.7212 16.9037 16.9819 16.9328 17.2266 16.8767C17.4713 16.8206 17.6799 16.6838 17.8068 16.4964C18.7308 15.1285 19.2171 13.5769 19.2168 11.9974C19.2164 10.4179 18.7295 8.86637 17.8049 7.49882C17.7451 7.40107 17.6627 7.31468 17.5628 7.24483C17.4629 7.17499 17.3475 7.12313 17.2236 7.0924C17.0996 7.06166 16.9697 7.05267 16.8416 7.06598C16.7134 7.07928 16.5898 7.1146 16.4781 7.1698C16.3663 7.22501 16.2688 7.29897 16.1914 7.38722C16.1139 7.47548 16.0582 7.57622 16.0275 7.68337C15.9968 7.79052 15.9917 7.90187 16.0127 8.01072C16.0336 8.11958 16.0801 8.22368 16.1494 8.31678C16.9057 9.43579 17.3038 10.7053 17.3038 11.9976C17.3038 13.2899 16.9057 14.5594 16.1494 15.6784C16.0866 15.7715 16.0459 15.8743 16.0297 15.9809C16.0134 16.0874 16.0219 16.1957 16.0546 16.2995C16.0873 16.4032 16.1436 16.5005 16.2203 16.5856Z" fill="#1E1E1E"/>
<path d="M13.0781 2.32499C12.9521 2.26418 12.8115 2.23985 12.6723 2.25476C12.5332 2.26967 12.4009 2.32322 12.2906 2.40937L5.74688 7.49999H1.5C1.10218 7.49999 0.720644 7.65803 0.43934 7.93933C0.158035 8.22064 0 8.60217 0 8.99999V15C0 15.3978 0.158035 15.7794 0.43934 16.0607C0.720644 16.342 1.10218 16.5 1.5 16.5H5.74688L12.2906 21.5906C12.4221 21.6927 12.5835 21.7487 12.75 21.75C12.8635 21.7486 12.9753 21.7231 13.0781 21.675C13.2047 21.6134 13.3114 21.5174 13.386 21.3981C13.4606 21.2787 13.5001 21.1408 13.5 21V2.99999C13.5001 2.85923 13.4606 2.72128 13.386 2.60191C13.3114 2.48254 13.2047 2.38658 13.0781 2.32499ZM12 19.4625L6.45938 15.1594C6.32855 15.0561 6.1667 14.9999 6 15H1.5V8.99999H6C6.1667 9.00008 6.32855 8.94393 6.45938 8.84062L12 4.53749V12V19.4625Z" fill="#1E1E1E"/>
</svg>
