<svg width="18" height="19" viewBox="0 0 18 19" fill="none" xmlns="http://www.w3.org/2000/svg">
<path d="M2 18.248C1.45 18.248 0.979 18.0523 0.587 17.661C0.195667 17.269 0 16.798 0 16.248V12.248H2V16.248H6V18.248H2ZM12 18.248V16.248H16V12.248H18V16.248C18 16.798 17.8043 17.269 17.413 17.661C17.021 18.0523 16.55 18.248 16 18.248H12ZM0 6.248V2.248C0 1.698 0.195667 1.227 0.587 0.835001C0.979 0.443668 1.45 0.248001 2 0.248001H6V2.248H2V6.248H0ZM16 6.248V2.248H12V0.248001H16C16.55 0.248001 17.021 0.443668 17.413 0.835001C17.8043 1.227 18 1.698 18 2.248V6.248H16Z" fill="#1E1E1E"/>
</svg>
