<svg width="75" height="75" viewBox="0 0 75 75" fill="none" xmlns="http://www.w3.org/2000/svg">
<g filter="url(#filter0_d_74_61)">
<rect x="8" y="6" width="55" height="55" rx="27.5" fill="#F1F1F1"/>
<path d="M41.1146 34.9584L38.1979 32.0417H40.2761C40.8351 32.0417 41.2546 32.2847 41.5346 32.7709C41.8136 33.257 41.8195 33.7431 41.5521 34.2292L41.1146 34.9584ZM37.3229 31.1667L28.2084 22.0521V20.375C28.2084 19.9618 28.3479 19.6152 28.6269 19.3352C28.9069 19.0562 29.2535 18.9167 29.6667 18.9167H40.5313C41.066 18.9167 41.4792 19.1354 41.7708 19.5729C42.0625 20.0104 42.099 20.4722 41.8802 20.9584L37.3229 31.1667ZM45.8542 47.9375L38.0521 40.2084L33.9323 47.2084C33.7379 47.5486 33.4647 47.6638 33.1127 47.554C32.7598 47.4451 32.5834 47.2084 32.5834 46.8438V36.4167H29.6667C29.2535 36.4167 28.9069 36.2767 28.6269 35.9967C28.3479 35.7177 28.2084 35.3715 28.2084 34.9584V30.3646L21.0625 23.1459C20.7952 22.8785 20.6552 22.544 20.6425 22.1425C20.6309 21.742 20.7709 21.3959 21.0625 21.1042C21.3299 20.8368 21.6702 20.7031 22.0834 20.7031C22.4965 20.7031 22.8368 20.8368 23.1042 21.1042L47.8959 45.8959C48.1632 46.1632 48.3032 46.4977 48.3159 46.8992C48.3275 47.2997 48.1875 47.6459 47.8959 47.9375C47.6285 48.2049 47.2882 48.3386 46.875 48.3386C46.4618 48.3386 46.1215 48.2049 45.8542 47.9375Z" fill="#1E1E1E"/>
<rect x="10" y="8" width="51" height="51" rx="25.5" stroke="#E0E0E0" stroke-width="4"/>
</g>
<defs>
<filter id="filter0_d_74_61" x="0" y="0" width="75" height="75" filterUnits="userSpaceOnUse" color-interpolation-filters="sRGB">
<feFlood flood-opacity="0" result="BackgroundImageFix"/>
<feColorMatrix in="SourceAlpha" type="matrix" values="0 0 0 0 0 0 0 0 0 0 0 0 0 0 0 0 0 0 127 0" result="hardAlpha"/>
<feOffset dx="2" dy="4"/>
<feGaussianBlur stdDeviation="5"/>
<feColorMatrix type="matrix" values="0 0 0 0 0.878431 0 0 0 0 0.878431 0 0 0 0 0.878431 0 0 0 1 0"/>
<feBlend mode="normal" in2="BackgroundImageFix" result="effect1_dropShadow_74_61"/>
<feBlend mode="normal" in="SourceGraphic" in2="effect1_dropShadow_74_61" result="shape"/>
</filter>
</defs>
</svg>
