<svg width="75" height="75" viewBox="0 0 75 75" fill="none" xmlns="http://www.w3.org/2000/svg">
<g filter="url(#filter0_d_74_103)">
<rect x="8" y="6" width="55" height="55" rx="27.5" fill="#F1F1F1"/>
<path d="M28.2083 40.7917H42.7917C43.0833 40.7917 43.3021 40.658 43.4479 40.3906C43.5938 40.1233 43.5694 39.8681 43.375 39.625L39.3646 34.2656C39.2188 34.0712 39.0243 33.974 38.7812 33.974C38.5382 33.974 38.3438 34.0712 38.1979 34.2656L34.4062 39.3333L31.7083 35.724C31.5625 35.5295 31.3681 35.4323 31.125 35.4323C30.8819 35.4323 30.6875 35.5295 30.5417 35.724L27.625 39.625C27.4306 39.8681 27.4063 40.1233 27.5521 40.3906C27.6979 40.658 27.9167 40.7917 28.2083 40.7917ZM25.2917 46.625C24.4896 46.625 23.8027 46.3397 23.231 45.769C22.6603 45.1973 22.375 44.5104 22.375 43.7083V23.2917C22.375 22.4896 22.6603 21.8027 23.231 21.231C23.8027 20.6603 24.4896 20.375 25.2917 20.375H45.7083C46.5104 20.375 47.1973 20.6603 47.769 21.231C48.3397 21.8027 48.625 22.4896 48.625 23.2917V43.7083C48.625 44.5104 48.3397 45.1973 47.769 45.769C47.1973 46.3397 46.5104 46.625 45.7083 46.625H25.2917Z" fill="#1E1E1E"/>
<rect x="10" y="8" width="51" height="51" rx="25.5" stroke="#E0E0E0" stroke-width="4"/>
</g>
<defs>
<filter id="filter0_d_74_103" x="0" y="0" width="75" height="75" filterUnits="userSpaceOnUse" color-interpolation-filters="sRGB">
<feFlood flood-opacity="0" result="BackgroundImageFix"/>
<feColorMatrix in="SourceAlpha" type="matrix" values="0 0 0 0 0 0 0 0 0 0 0 0 0 0 0 0 0 0 127 0" result="hardAlpha"/>
<feOffset dx="2" dy="4"/>
<feGaussianBlur stdDeviation="5"/>
<feColorMatrix type="matrix" values="0 0 0 0 0.878431 0 0 0 0 0.878431 0 0 0 0 0.878431 0 0 0 1 0"/>
<feBlend mode="normal" in2="BackgroundImageFix" result="effect1_dropShadow_74_103"/>
<feBlend mode="normal" in="SourceGraphic" in2="effect1_dropShadow_74_103" result="shape"/>
</filter>
</defs>
</svg>
