<svg width="18" height="18" viewBox="0 0 18 18" fill="none" xmlns="http://www.w3.org/2000/svg">
<path d="M9 12C9.825 12 10.5 12.675 10.5 13.5C10.5 14.325 9.825 15 9 15C8.175 15 7.5 14.325 7.5 13.5C7.5 12.675 8.175 12 9 12ZM9 7.49999C9.825 7.49999 10.5 8.17499 10.5 8.99999C10.5 9.82499 9.825 10.5 9 10.5C8.175 10.5 7.5 9.82499 7.5 8.99999C7.5 8.17499 8.175 7.49999 9 7.49999ZM9 2.99999C9.825 2.99999 10.5 3.67499 10.5 4.49999C10.5 5.32499 9.825 5.99999 9 5.99999C8.175 5.99999 7.5 5.32499 7.5 4.49999C7.5 3.67499 8.175 2.99999 9 2.99999ZM4.5 12C5.325 12 6 12.675 6 13.5C6 14.325 5.325 15 4.5 15C3.675 15 3 14.325 3 13.5C3 12.675 3.675 12 4.5 12ZM4.5 7.49999C5.325 7.49999 6 8.17499 6 8.99999C6 9.82499 5.325 10.5 4.5 10.5C3.675 10.5 3 9.82499 3 8.99999C3 8.17499 3.675 7.49999 4.5 7.49999ZM4.5 2.99999C5.325 2.99999 6 3.67499 6 4.49999C6 5.32499 5.325 5.99999 4.5 5.99999C3.675 5.99999 3 5.32499 3 4.49999C3 3.67499 3.675 2.99999 4.5 2.99999ZM13.5 12C14.325 12 15 12.675 15 13.5C15 14.325 14.325 15 13.5 15C12.675 15 12 14.325 12 13.5C12 12.675 12.675 12 13.5 12ZM13.5 7.49999C14.325 7.49999 15 8.17499 15 8.99999C15 9.82499 14.325 10.5 13.5 10.5C12.675 10.5 12 9.82499 12 8.99999C12 8.17499 12.675 7.49999 13.5 7.49999ZM13.5 2.99999C14.325 2.99999 15 3.67499 15 4.49999C15 5.32499 14.325 5.99999 13.5 5.99999C12.675 5.99999 12 5.32499 12 4.49999C12 3.67499 12.675 2.99999 13.5 2.99999Z" fill="#1E1E1E"/>
</svg>
