<svg width="30" height="30" viewBox="0 0 30 30" fill="none" xmlns="http://www.w3.org/2000/svg">
<path d="M15 20C16.375 20 17.5 21.125 17.5 22.5C17.5 23.875 16.375 25 15 25C13.625 25 12.5 23.875 12.5 22.5C12.5 21.125 13.625 20 15 20ZM15 12.5C16.375 12.5 17.5 13.625 17.5 15C17.5 16.375 16.375 17.5 15 17.5C13.625 17.5 12.5 16.375 12.5 15C12.5 13.625 13.625 12.5 15 12.5ZM15 4.99999C16.375 4.99999 17.5 6.12499 17.5 7.49999C17.5 8.87499 16.375 9.99999 15 9.99999C13.625 9.99999 12.5 8.87499 12.5 7.49999C12.5 6.12499 13.625 4.99999 15 4.99999ZM7.5 20C8.875 20 10 21.125 10 22.5C10 23.875 8.875 25 7.5 25C6.125 25 5 23.875 5 22.5C5 21.125 6.125 20 7.5 20ZM7.5 12.5C8.875 12.5 10 13.625 10 15C10 16.375 8.875 17.5 7.5 17.5C6.125 17.5 5 16.375 5 15C5 13.625 6.125 12.5 7.5 12.5ZM7.5 4.99999C8.875 4.99999 10 6.12499 10 7.49999C10 8.87499 8.875 9.99999 7.5 9.99999C6.125 9.99999 5 8.87499 5 7.49999C5 6.12499 6.125 4.99999 7.5 4.99999ZM22.5 20C23.875 20 25 21.125 25 22.5C25 23.875 23.875 25 22.5 25C21.125 25 20 23.875 20 22.5C20 21.125 21.125 20 22.5 20ZM22.5 12.5C23.875 12.5 25 13.625 25 15C25 16.375 23.875 17.5 22.5 17.5C21.125 17.5 20 16.375 20 15C20 13.625 21.125 12.5 22.5 12.5ZM22.5 4.99999C23.875 4.99999 25 6.12499 25 7.49999C25 8.87499 23.875 9.99999 22.5 9.99999C21.125 9.99999 20 8.87499 20 7.49999C20 6.12499 21.125 4.99999 22.5 4.99999Z" fill="#1E1E1E"/>
</svg>
