<svg width="24" height="24" viewBox="0 0 24 24" fill="none" xmlns="http://www.w3.org/2000/svg">
<path d="M0 18.9L5.34 4H7.66L13 18.9H10.9L9.68 15.4H3.32L2.1 18.9H0ZM3.94 13.6H9.06L6.22 5.42H6.78L3.94 13.6Z" fill="#797979"/>
<path d="M17.8175 19.14C17.1108 19.14 16.4842 19.0133 15.9375 18.76C15.4042 18.4933 14.9842 18.1333 14.6775 17.68C14.3708 17.2133 14.2175 16.68 14.2175 16.08C14.2175 15.5067 14.3375 14.9933 14.5775 14.54C14.8308 14.0733 15.2175 13.68 15.7375 13.36C16.2708 13.04 16.9375 12.8133 17.7375 12.68L21.7375 12.02V13.58L18.1575 14.18C17.4642 14.3 16.9575 14.52 16.6375 14.84C16.3308 15.16 16.1775 15.5533 16.1775 16.02C16.1775 16.46 16.3508 16.8267 16.6975 17.12C17.0575 17.4133 17.5042 17.56 18.0375 17.56C18.7175 17.56 19.3042 17.42 19.7975 17.14C20.3042 16.8467 20.6975 16.4533 20.9775 15.96C21.2708 15.4667 21.4175 14.92 21.4175 14.32V11.58C21.4175 10.9933 21.1975 10.52 20.7575 10.16C20.3308 9.78667 19.7642 9.6 19.0575 9.6C18.4442 9.6 17.8975 9.76 17.4175 10.08C16.9508 10.3867 16.6042 10.8 16.3775 11.32L14.7575 10.48C14.9575 9.98667 15.2775 9.54667 15.7175 9.16C16.1575 8.76 16.6708 8.44667 17.2575 8.22C17.8442 7.99333 18.4575 7.88 19.0975 7.88C19.9242 7.88 20.6508 8.04 21.2775 8.36C21.9042 8.66667 22.3908 9.1 22.7375 9.66C23.0975 10.2067 23.2775 10.8467 23.2775 11.58V18.9H21.4575V16.86L21.7975 16.98C21.5708 17.4067 21.2642 17.78 20.8775 18.1C20.4908 18.42 20.0375 18.6733 19.5175 18.86C18.9975 19.0467 18.4308 19.14 17.8175 19.14Z" fill="#797979"/>
</svg>
