<svg width="32" height="32" viewBox="0 0 32 32" fill="none" xmlns="http://www.w3.org/2000/svg">
<path d="M16 2.66669C8.65334 2.66669 2.66667 8.65335 2.66667 16C2.66667 23.3467 8.65334 29.3334 16 29.3334C16.6439 29.3332 17.2741 29.1466 17.8142 28.7961C18.3543 28.4455 18.7814 27.946 19.0437 27.3579C19.306 26.7698 19.3924 26.1183 19.2923 25.4822C19.1923 24.8461 18.9102 24.2525 18.48 23.7734C18.3928 23.6785 18.3353 23.5603 18.3145 23.4331C18.2937 23.306 18.3106 23.1756 18.363 23.0579C18.4155 22.9403 18.5012 22.8405 18.6097 22.771C18.7181 22.7015 18.8445 22.6652 18.9733 22.6667H21.3333C25.7467 22.6667 29.3333 19.08 29.3333 14.6667C29.3333 8.05335 23.3467 2.66669 16 2.66669ZM21.3333 20H18.9733C18.0893 20 17.2414 20.3512 16.6163 20.9763C15.9912 21.6015 15.64 22.4493 15.64 23.3334C15.64 24.1467 15.9333 24.92 16.48 25.5334C16.56 25.6267 16.6667 25.7867 16.6667 26C16.6667 26.3734 16.3733 26.6667 16 26.6667C10.12 26.6667 5.33334 21.88 5.33334 16C5.33334 10.12 10.12 5.33335 16 5.33335C21.88 5.33335 26.6667 9.52002 26.6667 14.6667C26.6667 17.6134 24.28 20 21.3333 20Z" fill="#F1F1F1"/>
<path d="M8.66667 17.3333C9.77124 17.3333 10.6667 16.4379 10.6667 15.3333C10.6667 14.2287 9.77124 13.3333 8.66667 13.3333C7.5621 13.3333 6.66667 14.2287 6.66667 15.3333C6.66667 16.4379 7.5621 17.3333 8.66667 17.3333Z" fill="#F1F1F1"/>
<path d="M12.6667 12C13.7712 12 14.6667 11.1046 14.6667 10C14.6667 8.89543 13.7712 8 12.6667 8C11.5621 8 10.6667 8.89543 10.6667 10C10.6667 11.1046 11.5621 12 12.6667 12Z" fill="#F1F1F1"/>
<path d="M19.3333 12C20.4379 12 21.3333 11.1046 21.3333 10C21.3333 8.89543 20.4379 8 19.3333 8C18.2288 8 17.3333 8.89543 17.3333 10C17.3333 11.1046 18.2288 12 19.3333 12Z" fill="#F1F1F1"/>
<path d="M23.3333 17.3333C24.4379 17.3333 25.3333 16.4379 25.3333 15.3333C25.3333 14.2287 24.4379 13.3333 23.3333 13.3333C22.2288 13.3333 21.3333 14.2287 21.3333 15.3333C21.3333 16.4379 22.2288 17.3333 23.3333 17.3333Z" fill="#F1F1F1"/>
</svg>
